<svg width="25" height="24" viewBox="0 0 25 24" fill="none" xmlns="http://www.w3.org/2000/svg">
<path fill-rule="evenodd" clip-rule="evenodd" d="M4.20711 2.29289C3.81658 1.90237 3.18342 1.90237 2.79289 2.29289C2.40237 2.68342 2.40237 3.31658 2.79289 3.70711L4.74681 5.66102C4.03989 6.5233 3.47806 7.50273 3.09016 8.56183V8.61183C2.30328 10.7827 2.30328 13.1609 3.09016 15.3318V15.3818C3.79476 17.3056 5.07324 18.9665 6.75267 20.14C8.43209 21.3134 10.4314 21.9427 12.4802 21.9427C14.5289 21.9427 16.5282 21.3134 18.2076 20.14C18.4068 20.0008 18.6004 19.8547 18.788 19.7022L21.2929 22.2071C21.6834 22.5976 22.3166 22.5976 22.7071 22.2071C23.0976 21.8166 23.0976 21.1834 22.7071 20.7929L20.206 18.2918C20.206 18.2917 20.206 18.2917 20.2061 18.2917L18.7925 16.8781C18.7925 16.8781 18.7924 16.8782 18.7924 16.8782L17.984 16.0697C17.984 16.0697 17.984 16.0697 17.984 16.0696L15.8862 13.9718H15.886L13.4602 11.5459V11.5458L9.8862 7.97183H9.88604L9.22079 7.30658C9.2208 7.30654 9.22082 7.30649 9.22083 7.30645L7.71473 5.80035C7.71471 5.80039 7.71469 5.80042 7.71468 5.80046L7.56722 5.653C7.56725 5.65298 7.56728 5.65295 7.56731 5.65293L6.1632 4.24882C6.16317 4.24885 6.16314 4.24887 6.16311 4.2489L4.20711 2.29289ZM6.15111 7.06532C5.9276 7.35246 5.72338 7.65525 5.54016 7.97183H6.94016C6.94804 7.94064 6.95605 7.9095 6.96417 7.87839L6.15111 7.06532ZM9.05761 9.97183H8.60016C8.41355 11.2986 8.41355 12.645 8.60016 13.9718H11.4602V12.3744L9.05761 9.97183ZM15.0576 15.9718H13.4602V19.6718C14.5065 18.904 15.2874 17.8371 15.7055 16.6197L15.0576 15.9718ZM17.2167 18.131C17.1505 18.2691 17.0816 18.4061 17.0102 18.5418C17.1322 18.4587 17.2517 18.3723 17.3686 18.2828L17.2167 18.131ZM11.4602 6.30314C11.4602 6.56835 11.5655 6.82271 11.753 7.01024L14.4217 9.67893C14.6093 9.86647 14.8636 9.97183 15.1288 9.97183H16.3202C16.3935 10.0779 16.4378 10.661 16.4524 11.2689C16.4593 11.5545 16.5713 11.8285 16.7733 12.0305C17.4154 12.6726 18.4011 12.2743 18.3848 11.3664C18.3811 11.1554 18.3781 10.9752 18.3779 10.851C18.379 10.1825 18.3402 9.97183 18.3402 9.97183H20.2002C20.5469 11.2826 20.5469 12.661 20.2002 13.9718L19.9874 14.7105C19.8693 15.1202 20.0123 15.5606 20.3486 15.8228C20.8619 16.2231 21.6014 16.0545 21.8286 15.4445C21.8426 15.4067 21.8565 15.3691 21.8702 15.3318C22.657 13.1609 22.657 10.7827 21.8702 8.61183V8.56183C21.1656 6.63805 19.8871 4.97711 18.2076 3.80369C16.5282 2.63027 14.5289 2.00216 12.4802 2.001C11.3437 2.00035 10.1488 2.28792 8.87674 2.82997C8.04128 3.18598 8.18448 4.33816 9.06024 4.57854C9.43432 4.68122 9.86008 4.55982 10.2586 4.44619C10.37 4.41442 10.4793 4.38325 10.5847 4.35777C10.9403 4.27183 11.3171 4.27183 11.4602 4.27183V6.30314ZM19.3802 7.97183H17.9802C17.7454 7.07998 17.4099 6.21776 16.9802 5.40182C17.9609 6.06989 18.7807 6.94777 19.3802 7.97183ZM13.4602 4.27183C14.6884 5.17314 15.551 6.48659 15.8902 7.97183H13.4602V4.27183ZM4.72016 13.9718C4.37338 12.661 4.37338 11.2826 4.72016 9.97183H6.58016C6.42019 11.3004 6.42019 12.6433 6.58016 13.9718H4.72016ZM5.54016 15.9718H6.94016C7.17488 16.8637 7.51037 17.7259 7.94016 18.5418C6.95945 17.8738 6.13965 16.9959 5.54016 15.9718ZM11.4602 19.6718C10.2319 18.7705 9.3693 17.4571 9.03016 15.9718H11.4602V19.6718Z" fill="#CEBC08"/>
</svg>
