<svg width="21" height="21" viewBox="0 0 21 21" fill="none" xmlns="http://www.w3.org/2000/svg">
<path fill-rule="evenodd" clip-rule="evenodd" d="M2.20711 0.292893C1.81658 -0.0976311 1.18342 -0.0976311 0.792893 0.292893C0.402369 0.683417 0.402369 1.31658 0.792893 1.70711L2.74681 3.66102C2.03989 4.5233 1.47806 5.50273 1.09016 6.56183V6.61183C0.303281 8.78272 0.303281 11.1609 1.09016 13.3318V13.3818C1.79476 15.3056 3.07324 16.9665 4.75267 18.14C6.43209 19.3134 8.43141 19.9427 10.4802 19.9427C12.5289 19.9427 14.5282 19.3134 16.2076 18.14C16.4068 18.0008 16.6004 17.8547 16.788 17.7022L19.2929 20.2071C19.6834 20.5976 20.3166 20.5976 20.7071 20.2071C21.0976 19.8166 21.0976 19.1834 20.7071 18.7929L18.206 16.2918C18.206 16.2917 18.206 16.2917 18.2061 16.2917L16.7925 14.8781C16.7925 14.8781 16.7924 14.8782 16.7924 14.8782L15.984 14.0697C15.984 14.0697 15.984 14.0697 15.984 14.0696L13.8862 11.9718H13.886L11.4602 9.54594V9.54578L7.8862 5.97183H7.88604L7.22079 5.30658C7.2208 5.30654 7.22082 5.30649 7.22083 5.30645L5.71473 3.80035C5.71471 3.80039 5.71469 3.80042 5.71468 3.80046L5.56722 3.653C5.56725 3.65298 5.56728 3.65295 5.56731 3.65293L4.1632 2.24882C4.16317 2.24885 4.16314 2.24887 4.16311 2.2489L2.20711 0.292893ZM4.15111 5.06532C3.9276 5.35246 3.72338 5.65525 3.54016 5.97183H4.94016C4.94804 5.94064 4.95605 5.9095 4.96417 5.87839L4.15111 5.06532ZM7.05761 7.97183H6.60016C6.41355 9.29863 6.41355 10.645 6.60016 11.9718H9.46016V10.3744L7.05761 7.97183ZM13.0576 13.9718H11.4602V17.6718C12.5065 16.904 13.2874 15.8371 13.7055 14.6197L13.0576 13.9718ZM15.2167 16.131C15.1505 16.2691 15.0816 16.4061 15.0102 16.5418C15.1322 16.4587 15.2517 16.3723 15.3686 16.2828L15.2167 16.131ZM9.46016 4.30314C9.46016 4.56835 9.56551 4.82271 9.75305 5.01024L12.4217 7.67893C12.6093 7.86647 12.8636 7.97183 13.1288 7.97183H14.3202C14.3935 8.07788 14.4378 8.66102 14.4524 9.26886C14.4593 9.55445 14.5713 9.8285 14.7733 10.0305C15.4154 10.6726 16.4011 10.2743 16.3848 9.36643C16.3811 9.15536 16.3781 8.97522 16.3779 8.85104C16.379 8.18255 16.3402 7.97183 16.3402 7.97183H18.2002C18.5469 9.28261 18.5469 10.661 18.2002 11.9718L17.9874 12.7105C17.8693 13.1202 18.0123 13.5606 18.3486 13.8228C18.8619 14.2231 19.6014 14.0545 19.8286 13.4445C19.8426 13.4067 19.8565 13.3691 19.8702 13.3318C20.657 11.1609 20.657 8.78272 19.8702 6.61183V6.56183C19.1656 4.63805 17.8871 2.97711 16.2076 1.80369C14.5282 0.630268 12.5289 0.00215955 10.4802 0.00099666C9.3437 0.000351594 8.14879 0.287922 6.87674 0.82997C6.04128 1.18598 6.18448 2.33816 7.06024 2.57854C7.43432 2.68122 7.86008 2.55982 8.25856 2.44619C8.36999 2.41442 8.47929 2.38325 8.58472 2.35777C8.94025 2.27183 9.31714 2.27183 9.46016 2.27183V4.30314ZM17.3802 5.97183H15.9802C15.7454 5.07998 15.4099 4.21776 14.9802 3.40182C15.9609 4.06989 16.7807 4.94777 17.3802 5.97183ZM11.4602 2.27183C12.6884 3.17314 13.551 4.48659 13.8902 5.97183H11.4602V2.27183ZM2.72016 11.9718C2.37338 10.661 2.37338 9.28261 2.72016 7.97183H4.58016C4.42019 9.30036 4.42019 10.6433 4.58016 11.9718H2.72016ZM3.54016 13.9718H4.94016C5.17488 14.8637 5.51037 15.7259 5.94016 16.5418C4.95945 15.8738 4.13965 14.9959 3.54016 13.9718ZM9.46016 17.6718C8.23192 16.7705 7.3693 15.4571 7.03016 13.9718H9.46016V17.6718Z" fill="#CEBC08"/>
</svg>
