<svg width="99" height="33" viewBox="0 0 99 33" fill="none" xmlns="http://www.w3.org/2000/svg">
    <path fill-rule="evenodd" clip-rule="evenodd" d="M24.2734 4.3285C25.5517 4.3285 26.7094 4.6285 27.746 5.2285C28.7818 5.83 29.596 6.691 30.1872 7.8115C30.7791 8.93275 31.0743 10.234 31.0743 11.7175C31.0743 11.77 31.0498 12.1405 31.0007 12.8282H21.1147C21.2931 13.7125 21.714 14.4085 22.3788 14.9208C23.0413 15.4345 23.8674 15.6887 24.8564 15.6887C25.536 15.6887 26.1391 15.5793 26.6655 15.3588C27.192 15.1375 27.6813 14.7887 28.1349 14.3125L30.1515 16.696C28.9201 18.232 27.1229 19 24.7582 19C23.2845 19 21.9809 18.6865 20.8484 18.0595C19.7145 17.4325 18.8393 16.564 18.2251 15.4503C17.6079 14.3395 17.3008 13.0765 17.3008 11.6642C17.3008 10.2692 17.6042 9.0115 18.2117 7.891C18.8192 6.76975 19.6528 5.896 20.7139 5.26825C21.7742 4.64125 22.9617 4.3285 24.2734 4.3285ZM37.9488 1.3885V4.858H41.2042V8.03575H37.9488V13.8355C37.9488 14.4355 38.0901 14.9005 38.3741 15.226C38.6567 15.5522 39.0582 15.7165 39.5772 15.7165C40.1758 15.7165 40.6852 15.5402 41.1076 15.187L42.1263 18.0993C41.7545 18.3993 41.2957 18.6243 40.7543 18.7743C40.2115 18.9242 39.6412 18.9993 39.0419 18.9993C37.487 18.9993 36.2854 18.5672 35.4347 17.7017C34.584 16.8377 34.1594 15.5665 34.1594 13.8888V8.035H32.1428V4.85725H34.1594V1.3885H37.9488ZM48.1508 1.3885V4.858H51.4063V8.03575H48.1508V13.8355C48.1508 14.4355 48.2921 14.9005 48.5762 15.226C48.8587 15.5522 49.2603 15.7165 49.7793 15.7165C50.3779 15.7165 50.8872 15.5402 51.3096 15.187L52.3291 18.0993C51.9573 18.3993 51.4985 18.6243 50.9564 18.7743C50.4136 18.9242 49.8432 18.9993 49.2439 18.9993C47.6891 18.9993 46.4874 18.5672 45.6368 17.7017C44.7861 16.8377 44.3615 15.5665 44.3615 13.8888V8.035H42.3449V4.85725H44.3615V1.3885H48.1508ZM69.4881 13.8617C70.1529 13.8617 70.7113 14.0957 71.1657 14.5637C71.6193 15.0317 71.8453 15.646 71.8453 16.405C71.8453 17.1475 71.6185 17.764 71.1657 18.2575C70.7113 18.7525 70.1529 19 69.4881 19C68.8241 19 68.2657 18.7525 67.8128 18.2575C67.3592 17.764 67.1332 17.1475 67.1332 16.405C67.1332 15.646 67.3592 15.0317 67.8128 14.5637C68.2664 14.0957 68.8241 13.8617 69.4881 13.8617ZM88.3077 4.53925V11.9815C88.3077 14.2765 89.1896 15.4247 90.9548 15.4247C91.862 15.4247 92.5907 15.103 93.141 14.4573C93.6912 13.8145 93.9671 12.856 93.9671 11.5848V4.54H97.7564V18.7878H94.1612V17.0935C93.6769 17.6971 93.0624 18.1814 92.3647 18.5095C91.6562 18.839 90.8843 19.0065 90.1042 19C88.388 19 87.0272 18.4615 86.0241 17.3837C85.0195 16.3075 84.5183 14.71 84.5183 12.5912V4.54H88.3077V4.53925ZM59.8356 4.32775C60.7584 4.32775 61.6775 4.43875 62.5921 4.65925C63.5067 4.8805 64.2652 5.18425 64.863 5.5735L63.6004 8.5135C62.4684 7.812 61.1642 7.4446 59.8356 7.453C59.0258 7.453 58.4191 7.576 58.0138 7.82425C57.6093 8.07175 57.4056 8.38825 57.4056 8.77675C57.4056 9.21925 57.6249 9.5275 58.0621 9.7045C58.4986 9.88075 59.1946 10.0487 60.1516 10.207C61.2209 10.402 62.0946 10.609 62.7743 10.8295C63.4554 11.0508 64.0458 11.452 64.5477 12.0347C65.0497 12.6175 65.301 13.4297 65.301 14.4722C65.301 15.355 65.0578 16.1403 64.5723 16.8273C64.086 17.5165 63.3773 18.0505 62.4471 18.4307C61.5146 18.811 60.4096 18.9993 59.1307 18.9993C58.045 18.9993 56.9847 18.8552 55.9481 18.5627C54.9123 18.2717 54.0862 17.9065 53.4712 17.4632L54.7338 14.4977C55.3168 14.9043 56.021 15.2358 56.8471 15.4915C57.6732 15.7465 58.483 15.8755 59.2772 15.8755C60.8796 15.8755 61.6819 15.4428 61.6819 14.5773C61.6819 14.1708 61.4626 13.8805 61.0253 13.7042C60.5889 13.5272 59.9159 13.3773 59.0102 13.2543C57.9395 13.0773 57.0583 12.8733 56.3615 12.6437C55.6655 12.4142 55.0625 12.0077 54.5517 11.425C54.0416 10.843 53.7865 10.0128 53.7865 8.9365C53.7865 8.035 54.0252 7.237 54.5041 6.5395C54.98 5.842 55.6775 5.29975 56.5936 4.912C57.5067 4.52275 58.5879 4.32775 59.8356 4.32775ZM3.60163 0.25L12.054 11.5052V0.25H15.9408V18.7878H12.7106L4.23368 7.534V18.7878H0.346191V0.25H3.60163ZM82.6594 4.3285V8.1415C82.2385 8.10625 81.9552 8.08825 81.8087 8.08825C80.723 8.08825 79.8739 8.41975 79.2582 9.08125C78.6417 9.74425 78.3346 10.7372 78.3346 12.061V18.7878H74.5453V4.54H78.1658V6.42025C78.6165 5.7335 79.2529 5.19136 79.9995 4.858C80.7677 4.5055 81.6548 4.3285 82.6594 4.3285ZM24.2965 7.453C23.4376 7.453 22.7186 7.7185 22.1356 8.248C21.5519 8.77675 21.1957 9.50125 21.0671 10.42H27.5028C27.3742 9.5185 27.0173 8.8 26.4343 8.2615C25.8513 7.723 25.1397 7.453 24.2965 7.453ZM25.684 25.4523C26.0989 25.4523 26.4782 25.5618 26.818 25.7815C27.1578 25.999 27.4255 26.3087 27.6188 26.7055C27.8122 27.1015 27.9103 27.5635 27.9103 28.0907C27.9103 28.618 27.8129 29.08 27.6188 29.476C27.4255 29.8735 27.1578 30.181 26.818 30.4C26.4798 30.6188 26.0857 30.7332 25.684 30.7292C25.1137 30.7292 24.6653 30.523 24.3381 30.109V32.5H23.0428V25.5288H24.2809V26.119C24.6013 25.6735 25.0698 25.4515 25.684 25.4515V25.4523ZM96.2737 25.4523C96.6894 25.4523 97.0679 25.5618 97.4077 25.7815C97.7483 25.999 98.0152 26.3087 98.2093 26.7055C98.4026 27.1015 98.5 27.5635 98.5 28.0907C98.5 28.618 98.4034 29.08 98.2093 29.476C98.016 29.8735 97.7483 30.181 97.4077 30.4C97.0696 30.6188 96.6754 30.7332 96.2737 30.7292C95.7041 30.7292 95.255 30.523 94.9278 30.109V32.5H93.6332V25.5288H94.8706V26.119C95.1918 25.6735 95.6603 25.4515 96.2737 25.4515V25.4523ZM56.7385 25.4523C57.1535 25.4523 57.5327 25.5618 57.8725 25.7815C58.2131 25.999 58.48 26.3087 58.6741 26.7055C58.8674 27.1015 58.9641 27.5635 58.9641 28.0907C58.9641 28.618 58.8674 29.08 58.6741 29.476C58.4808 29.8735 58.2131 30.181 57.8725 30.4C57.5344 30.6188 57.1403 30.7332 56.7385 30.7292C56.1682 30.7292 55.7198 30.523 55.3927 30.109V32.5H54.0973V25.5288H55.3354V26.119C55.6559 25.6735 56.1251 25.4515 56.7385 25.4515V25.4523ZM86.6152 25.5288V29.434H87.2547V31.7583H86.0501V30.6527H82.9107V31.7583H81.7061V29.4333H81.889C82.1663 29.4272 82.3575 29.2405 82.4623 28.8722C82.5671 28.5032 82.6348 27.979 82.6616 27.2995L82.7203 25.5288H86.6152ZM72.7592 25.453C73.4507 25.453 73.9824 25.6413 74.3534 26.0193C74.7238 26.3965 74.9104 26.9673 74.9104 27.7285V30.6535H73.6969V30.0145C73.453 30.4908 72.9994 30.7285 72.3354 30.7285C71.9918 30.7285 71.6944 30.6625 71.443 30.529C71.201 30.4058 71 30.2139 70.8645 29.977C70.7292 29.7324 70.6605 29.4561 70.6652 29.176C70.6652 28.7005 70.8214 28.3255 71.1352 28.0525C71.4475 27.7803 71.9308 27.643 72.5852 27.643H73.6143C73.6143 27.319 73.5281 27.07 73.357 26.896C73.1845 26.7213 72.928 26.6335 72.5844 26.6335C72.3465 26.6335 72.113 26.6762 71.8825 26.7617C71.6527 26.8472 71.4587 26.9643 71.2966 27.1097L70.8326 26.0718C71.075 25.8738 71.3679 25.723 71.7085 25.6143C72.0483 25.5055 72.4 25.453 72.7592 25.453ZM62.1593 25.4523C62.63 25.4523 63.0501 25.5648 63.4227 25.7913C63.793 26.0163 64.0837 26.329 64.2927 26.7288C64.5039 27.1285 64.6102 27.583 64.6102 28.0907C64.6102 28.5977 64.5039 29.0538 64.2934 29.4528C64.0944 29.8404 63.7931 30.1651 63.4227 30.391C63.0509 30.616 62.63 30.7285 62.1586 30.7285C61.6886 30.7285 61.2663 30.616 60.893 30.391C60.5205 30.1662 60.217 29.8417 60.0163 29.4535C59.8059 29.0537 59.701 28.5985 59.701 28.0907C59.701 27.583 59.8059 27.1285 60.0163 26.728C60.2275 26.329 60.5197 26.0155 60.893 25.7905C61.2761 25.5622 61.7144 25.4451 62.1593 25.4523ZM19.6349 25.4523C20.0714 25.4523 20.4677 25.5602 20.8224 25.7762C21.1764 25.9923 21.4545 26.3012 21.6567 26.7048C21.859 27.1082 21.9594 27.5763 21.9594 28.1102C21.9594 28.129 21.9519 28.2618 21.9348 28.51H18.5545C18.6154 28.828 18.7597 29.0792 18.9865 29.2622C19.2133 29.446 19.4959 29.5375 19.8342 29.5375C20.0662 29.5375 20.2729 29.4985 20.4521 29.419C20.6321 29.3402 20.8001 29.215 20.9548 29.0432L21.6448 29.9012C21.2232 30.4517 20.6083 30.7285 19.8007 30.7285C19.2973 30.7285 18.8512 30.616 18.4638 30.391C18.0815 30.1712 17.77 29.8453 17.5662 29.452C17.3558 29.053 17.251 28.5985 17.251 28.0907C17.251 27.589 17.3551 27.1368 17.5618 26.7332C17.77 26.3305 18.0548 26.0155 18.4177 25.7905C18.7835 25.564 19.2057 25.447 19.6349 25.453V25.4523ZM36.9115 25.4523C37.348 25.4523 37.7443 25.5602 38.099 25.7762C38.4529 25.9923 38.731 26.3012 38.9333 26.7048C39.1355 27.1082 39.2359 27.5763 39.2359 28.1102C39.2359 28.129 39.2285 28.2618 39.2114 28.51H35.831C35.892 28.828 36.0363 29.0792 36.2631 29.2622C36.4899 29.446 36.7724 29.5375 37.1108 29.5375C37.3428 29.5375 37.5495 29.4985 37.7287 29.419C37.9086 29.3402 38.0767 29.215 38.2313 29.0432L38.9214 29.9012C38.4998 30.4517 37.8848 30.7285 37.0773 30.7285C36.5731 30.7285 36.1277 30.616 35.7403 30.391C35.3581 30.1712 35.0466 29.8453 34.8428 29.452C34.6316 29.053 34.5275 28.5985 34.5275 28.0907C34.5275 27.589 34.6309 27.1368 34.8383 26.7332C35.0466 26.3305 35.3313 26.0155 35.6942 25.7905C36.0601 25.564 36.4822 25.447 36.9115 25.453V25.4523ZM90.2246 25.4523C90.6611 25.4523 91.0574 25.5602 91.4121 25.7762C91.7661 25.9923 92.0442 26.3012 92.2464 26.7048C92.4487 27.1082 92.5491 27.5763 92.5491 28.1102C92.5491 28.129 92.5417 28.2618 92.5246 28.51H89.1442C89.2052 28.828 89.3502 29.0792 89.577 29.2622C89.8038 29.446 90.0856 29.5375 90.4239 29.5375C90.6559 29.5375 90.8626 29.4985 91.0418 29.419C91.2218 29.3402 91.3898 29.215 91.5452 29.0432L92.2346 29.9012C91.8137 30.4517 91.198 30.7285 90.3904 30.7285C89.887 30.7285 89.4409 30.616 89.0535 30.391C88.6713 30.1712 88.3597 29.8453 88.156 29.452C87.9455 29.053 87.8407 28.5985 87.8407 28.0907C87.8407 27.589 87.9448 27.1368 88.1515 26.7332C88.3597 26.3305 88.6452 26.0155 89.0074 25.7905C89.3733 25.564 89.7954 25.447 90.2246 25.453V25.4523ZM67.937 25.5288C68.4962 25.5288 68.9334 25.6442 69.2494 25.8767C69.5655 26.1085 69.7224 26.4333 69.7224 26.8533C69.7224 27.1068 69.6666 27.3303 69.5521 27.5238C69.4391 27.718 69.277 27.8687 69.0665 27.976C69.593 28.18 69.8562 28.5857 69.8562 29.1947C69.8562 29.659 69.703 30.0175 69.3997 30.271C69.0948 30.526 68.6412 30.6535 68.0367 30.6535H65.6534V25.5288H67.937ZM30.2593 25.5288V27.529H32.2023V25.5288H33.4977V30.6527H32.2023V28.738H30.2586V30.6527H28.9722V25.5288H30.2586H30.2593ZM52.7462 25.5288V30.6527H51.4509V26.7475H49.5897V30.6527H48.3033V25.5288H52.7462ZM8.38737 25.5288V27.529H10.3311V25.5288H11.6264V30.6527H10.3311V28.738H8.38737V30.6527H7.10096V25.5288H8.38737ZM16.749 25.5288V26.7483H15.2381V30.6535H13.9502V26.7475H12.4384V25.528H16.749V25.5288ZM77.475 25.5288V28.576L79.6523 25.5288H80.8398V30.6535H79.5534V27.6047L77.3843 30.6535H76.1886V25.5288H77.475ZM2.37694 25.5288V28.576L4.55342 25.5288H5.74093V30.6527H4.45453V27.6055L2.28547 30.6527H1.08978V25.5288H2.37619H2.37694ZM44.1213 25.5288V26.7483H42.6096V30.6535H41.3217V26.7475H39.81V25.528H44.1213V25.5288ZM73.6143 28.51H72.7257C72.1941 28.51 71.9286 28.7095 71.9286 29.11C71.9286 29.3013 71.9933 29.4513 72.1234 29.5623C72.2543 29.6733 72.4313 29.7288 72.6588 29.7288C72.8811 29.7288 73.0767 29.6695 73.2485 29.5525C73.421 29.4363 73.5422 29.2615 73.6143 29.0335V28.51ZM67.9534 28.5093H66.841V29.644H67.9296C68.4047 29.644 68.6434 29.4565 68.6434 29.0808C68.6434 28.8843 68.5877 28.7395 68.4776 28.6472C68.3661 28.555 68.1913 28.5093 67.9534 28.5093ZM25.4594 26.6717C25.303 26.6684 25.1479 26.7014 25.0062 26.7683C24.8645 26.8351 24.74 26.934 24.6422 27.0573C24.4281 27.3153 24.3225 27.6587 24.3225 28.0907C24.3225 28.522 24.4281 28.867 24.6422 29.1235C24.7399 29.2469 24.8644 29.3459 25.0061 29.4129C25.1479 29.4799 25.303 29.513 25.4594 29.5098C25.7918 29.5098 26.0647 29.3808 26.2774 29.1235C26.4908 28.867 26.5971 28.522 26.5971 28.0907C26.5971 27.6587 26.4908 27.3153 26.2774 27.0573C26.1795 26.934 26.0548 26.8353 25.913 26.7685C25.7711 26.7018 25.6159 26.6689 25.4594 26.6725V26.6717ZM62.1593 26.6717C61.8277 26.6717 61.5525 26.8008 61.3377 27.0573C61.122 27.3153 61.0135 27.6587 61.0135 28.0907C61.0135 28.522 61.1213 28.867 61.3377 29.1235C61.5533 29.3808 61.8277 29.5098 62.1593 29.5098C62.4917 29.5098 62.7646 29.3808 62.9773 29.1235C63.1907 28.867 63.297 28.522 63.297 28.0907C63.297 27.6587 63.1907 27.3153 62.9773 27.0573C62.8794 26.934 62.7547 26.8353 62.6128 26.7685C62.471 26.7018 62.3158 26.6689 62.1593 26.6725V26.6717ZM56.514 26.6717C56.3576 26.6684 56.2025 26.7014 56.0608 26.7683C55.919 26.8351 55.7945 26.934 55.6968 27.0573C55.4826 27.3153 55.377 27.6587 55.377 28.0907C55.377 28.522 55.4826 28.867 55.6968 29.1235C55.7945 29.247 55.9191 29.3461 56.061 29.413C56.2029 29.48 56.3581 29.5131 56.5147 29.5098C56.8471 29.5098 57.1193 29.3808 57.3327 29.1235C57.5453 28.867 57.6524 28.522 57.6524 28.0907C57.6524 27.6587 57.5453 27.3153 57.3327 27.0573C57.2348 26.934 57.1101 26.8353 56.9683 26.7685C56.8264 26.7018 56.6712 26.6689 56.5147 26.6725L56.514 26.6717ZM96.0492 26.6717C95.8927 26.6684 95.7377 26.7014 95.5959 26.7683C95.4542 26.8351 95.3297 26.934 95.232 27.0573C95.0185 27.3153 94.9122 27.6587 94.9122 28.0907C94.9122 28.522 95.0185 28.867 95.232 29.1235C95.3297 29.247 95.4543 29.3461 95.5962 29.413C95.738 29.48 95.8933 29.5131 96.0499 29.5098C96.3823 29.5098 96.6544 29.3808 96.8679 29.1235C97.0805 28.867 97.1876 28.522 97.1876 28.0907C97.1876 27.6587 97.0805 27.3153 96.8679 27.0573C96.77 26.934 96.6453 26.8353 96.5034 26.7685C96.3616 26.7018 96.2064 26.6689 96.0499 26.6725L96.0492 26.6717ZM85.3192 26.7475H83.858L83.8327 27.4053C83.8164 27.9265 83.7807 28.3503 83.7286 28.681C83.6766 29.011 83.5784 29.2615 83.4349 29.434H85.3199V26.7475H85.3192ZM47.0585 27.3752V28.5662H44.7088V27.3752H47.0585ZM90.2321 26.5765C89.9391 26.5765 89.693 26.6717 89.4929 26.8615C89.2944 27.0527 89.1725 27.3122 89.1286 27.643H91.3289C91.2842 27.319 91.163 27.061 90.9645 26.8667C90.8677 26.7716 90.7531 26.697 90.6273 26.6471C90.5015 26.5973 90.3672 26.5733 90.2321 26.5765ZM36.9189 26.5765C36.6259 26.5765 36.3798 26.6717 36.1798 26.8615C35.9812 27.0527 35.8593 27.3122 35.8154 27.643H38.0157C37.9711 27.319 37.8499 27.061 37.6513 26.8667C37.5546 26.7716 37.4399 26.697 37.3142 26.6471C37.1884 26.5973 37.054 26.5733 36.9189 26.5765ZM19.6423 26.5765C19.3494 26.5765 19.1032 26.6717 18.9032 26.8615C18.7047 27.0527 18.5827 27.3122 18.5389 27.643H20.7391C20.6945 27.319 20.5733 27.061 20.3748 26.8667C20.278 26.7716 20.1634 26.697 20.0376 26.6471C19.9118 26.5973 19.7774 26.5733 19.6423 26.5765ZM67.8203 26.539H66.841V27.634H67.8203C68.2753 27.634 68.5021 27.4503 68.5021 27.0813C68.5021 26.719 68.2753 26.5382 67.8203 26.5382V26.539ZM77.8082 23.5C77.8134 23.722 77.8677 23.8953 77.9695 24.019C78.0736 24.1428 78.2231 24.2058 78.4231 24.2058C78.6224 24.2058 78.7763 24.1428 78.8841 24.019C78.9912 23.8953 79.0455 23.722 79.0455 23.5H79.9088C79.9036 24.4825 79.4113 24.9775 78.432 24.9775C77.4564 24.9775 76.9664 24.4825 76.9612 23.5H77.8082Z" fill="#1F1F1F"/>
</svg>
