<svg width="146" height="39" viewBox="0 0 146 39" fill="none" xmlns="http://www.w3.org/2000/svg">
<g clip-path="url(#clip0_1848_10643)">
<path fill-rule="evenodd" clip-rule="evenodd" d="M19.8363 0C9.1606 0 0.500006 8.73225 0.500006 19.5C0.49745 22.7685 1.312 25.9849 2.86834 28.8518C3.45578 27.5745 4.37337 25.9132 5.62408 23.8643C7.30906 21.108 9.50562 17.808 12.2049 13.9605C14.0638 11.3197 15.3949 9.3435 17.6881 7.2255C18.5127 6.4575 19.0555 6.07275 19.3084 6.07275C19.8497 6.07275 20.2379 6.31275 20.478 6.79275C20.7138 7.27425 20.832 7.83525 20.832 8.47725C20.832 8.52225 20.8298 8.5695 20.829 8.62575C20.8372 8.74875 20.8439 8.87475 20.8439 9.003C20.8439 9.70875 20.2862 12.003 19.1768 15.8775C18.6652 17.643 18.4131 19.149 18.4131 20.4V20.4037C18.4428 21.5123 18.5849 22.6343 18.8302 23.7675C19.2764 25.7565 19.9434 26.7495 20.832 26.7495C21.6618 26.7495 22.456 26.271 23.2174 25.3088C23.79 24.567 24.6511 23.175 25.7954 21.1238C27.3183 18.3645 28.6062 16.1707 29.6547 14.5387C31.6921 11.3663 33.3972 8.892 34.7706 7.12125C31.2251 2.77275 25.8512 0 19.8363 0V0ZM32.6655 16.2172C31.4067 18.2534 30.1987 20.3211 29.0427 22.4183C27.9969 24.304 26.9489 26.1885 25.8988 28.0718C24.8474 29.9445 24.0354 31.1715 23.4628 31.749C22.4478 32.808 21.2722 33.339 19.9352 33.339C18.506 33.339 17.2806 32.307 16.2678 30.2603C15.2484 28.2105 14.7412 25.9688 14.7405 23.535C14.7338 23.3573 14.7338 23.178 14.7338 22.9965V21.5565C14.7338 20.5627 14.7747 19.767 14.8528 19.1752C14.9152 18.7013 15.0759 18.0052 15.3346 17.0865C14.0304 18.3045 12.657 20.3693 11.2151 23.286C10.0373 25.7213 8.85795 28.1422 7.68308 30.549C7.07334 31.6162 6.4807 32.4398 5.90293 33.0195C9.42531 36.7057 14.3628 39 19.8363 39C30.5105 39 39.1667 30.2663 39.1667 19.5C39.1667 16.101 38.3026 12.9045 36.7842 10.1153C35.5075 11.8298 34.1318 13.8615 32.6655 16.2172Z" fill="url(#paint0_radial_1848_10643)"/>
<path fill-rule="evenodd" clip-rule="evenodd" d="M71.2734 9.3285C72.5517 9.3285 73.7094 9.6285 74.746 10.2285C75.7818 10.83 76.596 11.691 77.1872 12.8115C77.7791 13.9328 78.0743 15.234 78.0743 16.7175C78.0743 16.77 78.0498 17.1405 78.0007 17.8282H68.1147C68.2931 18.7125 68.714 19.4085 69.3788 19.9208C70.0413 20.4345 70.8674 20.6887 71.8564 20.6887C72.536 20.6887 73.1391 20.5793 73.6655 20.3588C74.192 20.1375 74.6813 19.7887 75.1349 19.3125L77.1515 21.696C75.9201 23.232 74.1229 24 71.7582 24C70.2845 24 68.9809 23.6865 67.8484 23.0595C66.7145 22.4325 65.8393 21.564 65.2251 20.4503C64.6079 19.3395 64.3008 18.0765 64.3008 16.6642C64.3008 15.2692 64.6042 14.0115 65.2117 12.891C65.8192 11.7697 66.6528 10.896 67.7139 10.2682C68.7742 9.64125 69.9617 9.3285 71.2734 9.3285ZM84.9488 6.3885V9.858H88.2042V13.0358H84.9488V18.8355C84.9488 19.4355 85.0901 19.9005 85.3741 20.226C85.6567 20.5522 86.0582 20.7165 86.5772 20.7165C87.1758 20.7165 87.6852 20.5402 88.1076 20.187L89.1263 23.0993C88.7545 23.3993 88.2957 23.6243 87.7543 23.7743C87.2115 23.9242 86.6412 23.9993 86.0419 23.9993C84.487 23.9993 83.2854 23.5672 82.4347 22.7017C81.584 21.8377 81.1594 20.5665 81.1594 18.8888V13.035H79.1428V9.85725H81.1594V6.3885H84.9488ZM95.1508 6.3885V9.858H98.4063V13.0358H95.1508V18.8355C95.1508 19.4355 95.2921 19.9005 95.5762 20.226C95.8587 20.5522 96.2603 20.7165 96.7793 20.7165C97.3779 20.7165 97.8872 20.5402 98.3096 20.187L99.3291 23.0993C98.9573 23.3993 98.4985 23.6243 97.9564 23.7743C97.4136 23.9242 96.8432 23.9993 96.2439 23.9993C94.6891 23.9993 93.4874 23.5672 92.6368 22.7017C91.7861 21.8377 91.3615 20.5665 91.3615 18.8888V13.035H89.3449V9.85725H91.3615V6.3885H95.1508ZM116.488 18.8617C117.153 18.8617 117.711 19.0957 118.166 19.5637C118.619 20.0317 118.845 20.646 118.845 21.405C118.845 22.1475 118.619 22.764 118.166 23.2575C117.711 23.7525 117.153 24 116.488 24C115.824 24 115.266 23.7525 114.813 23.2575C114.359 22.764 114.133 22.1475 114.133 21.405C114.133 20.646 114.359 20.0317 114.813 19.5637C115.266 19.0957 115.824 18.8617 116.488 18.8617ZM135.308 9.53925V16.9815C135.308 19.2765 136.19 20.4247 137.955 20.4247C138.862 20.4247 139.591 20.103 140.141 19.4573C140.691 18.8145 140.967 17.856 140.967 16.5848V9.54H144.756V23.7878H141.161V22.0935C140.677 22.6971 140.062 23.1814 139.365 23.5095C138.656 23.839 137.884 24.0065 137.104 24C135.388 24 134.027 23.4615 133.024 22.3837C132.02 21.3075 131.518 19.71 131.518 17.5912V9.54H135.308V9.53925ZM106.836 9.32775C107.758 9.32775 108.677 9.43875 109.592 9.65925C110.507 9.8805 111.265 10.1842 111.863 10.5735L110.6 13.5135C109.468 12.812 108.164 12.4446 106.836 12.453C106.026 12.453 105.419 12.576 105.014 12.8243C104.609 13.0718 104.406 13.3882 104.406 13.7767C104.406 14.2192 104.625 14.5275 105.062 14.7045C105.499 14.8808 106.195 15.0487 107.152 15.207C108.221 15.402 109.095 15.609 109.774 15.8295C110.455 16.0508 111.046 16.452 111.548 17.0347C112.05 17.6175 112.301 18.4297 112.301 19.4722C112.301 20.355 112.058 21.1403 111.572 21.8273C111.086 22.5165 110.377 23.0505 109.447 23.4307C108.515 23.811 107.41 23.9993 106.131 23.9993C105.045 23.9993 103.985 23.8552 102.948 23.5627C101.912 23.2717 101.086 22.9065 100.471 22.4632L101.734 19.4977C102.317 19.9043 103.021 20.2358 103.847 20.4915C104.673 20.7465 105.483 20.8755 106.277 20.8755C107.88 20.8755 108.682 20.4428 108.682 19.5773C108.682 19.1708 108.463 18.8805 108.025 18.7042C107.589 18.5272 106.916 18.3773 106.01 18.2543C104.939 18.0773 104.058 17.8733 103.362 17.6437C102.666 17.4142 102.063 17.0077 101.552 16.425C101.042 15.843 100.786 15.0128 100.786 13.9365C100.786 13.035 101.025 12.237 101.504 11.5395C101.98 10.842 102.677 10.2997 103.594 9.912C104.507 9.52275 105.588 9.32775 106.836 9.32775ZM50.6016 5.25L59.054 16.5052V5.25H62.9408V23.7878H59.7106L51.2337 12.534V23.7878H47.3462V5.25H50.6016ZM129.659 9.3285V13.1415C129.238 13.1062 128.955 13.0883 128.809 13.0883C127.723 13.0883 126.874 13.4197 126.258 14.0812C125.642 14.7442 125.335 15.7372 125.335 17.061V23.7878H121.545V9.54H125.166V11.4202C125.617 10.7335 126.253 10.1914 127 9.858C127.768 9.5055 128.655 9.3285 129.659 9.3285ZM71.2965 12.453C70.4376 12.453 69.7186 12.7185 69.1356 13.248C68.5519 13.7767 68.1957 14.5012 68.0671 15.42H74.5028C74.3742 14.5185 74.0173 13.8 73.4343 13.2615C72.8513 12.723 72.1397 12.453 71.2965 12.453ZM72.684 30.4523C73.0989 30.4523 73.4782 30.5618 73.818 30.7815C74.1578 30.999 74.4255 31.3087 74.6188 31.7055C74.8122 32.1015 74.9103 32.5635 74.9103 33.0907C74.9103 33.618 74.8129 34.08 74.6188 34.476C74.4255 34.8735 74.1578 35.181 73.818 35.4C73.4798 35.6188 73.0857 35.7332 72.684 35.7292C72.1137 35.7292 71.6653 35.523 71.3381 35.109V37.5H70.0428V30.5288H71.2809V31.119C71.6013 30.6735 72.0698 30.4515 72.684 30.4515V30.4523ZM143.274 30.4523C143.689 30.4523 144.068 30.5618 144.408 30.7815C144.748 30.999 145.015 31.3087 145.209 31.7055C145.403 32.1015 145.5 32.5635 145.5 33.0907C145.5 33.618 145.403 34.08 145.209 34.476C145.016 34.8735 144.748 35.181 144.408 35.4C144.07 35.6188 143.675 35.7332 143.274 35.7292C142.704 35.7292 142.255 35.523 141.928 35.109V37.5H140.633V30.5288H141.871V31.119C142.192 30.6735 142.66 30.4515 143.274 30.4515V30.4523ZM103.739 30.4523C104.153 30.4523 104.533 30.5618 104.873 30.7815C105.213 30.999 105.48 31.3087 105.674 31.7055C105.867 32.1015 105.964 32.5635 105.964 33.0907C105.964 33.618 105.867 34.08 105.674 34.476C105.481 34.8735 105.213 35.181 104.873 35.4C104.534 35.6188 104.14 35.7332 103.739 35.7292C103.168 35.7292 102.72 35.523 102.393 35.109V37.5H101.097V30.5288H102.335V31.119C102.656 30.6735 103.125 30.4515 103.739 30.4515V30.4523ZM133.615 30.5288V34.434H134.255V36.7583H133.05V35.6527H129.911V36.7583H128.706V34.4333H128.889C129.166 34.4272 129.357 34.2405 129.462 33.8722C129.567 33.5032 129.635 32.979 129.662 32.2995L129.72 30.5288H133.615ZM119.759 30.453C120.451 30.453 120.982 30.6413 121.353 31.0193C121.724 31.3965 121.91 31.9673 121.91 32.7285V35.6535H120.697V35.0145C120.453 35.4908 119.999 35.7285 119.335 35.7285C118.992 35.7285 118.694 35.6625 118.443 35.529C118.201 35.4058 118 35.2139 117.865 34.977C117.729 34.7324 117.66 34.4561 117.665 34.176C117.665 33.7005 117.821 33.3255 118.135 33.0525C118.448 32.7803 118.931 32.643 119.585 32.643H120.614C120.614 32.319 120.528 32.07 120.357 31.896C120.185 31.7213 119.928 31.6335 119.584 31.6335C119.346 31.6335 119.113 31.6762 118.882 31.7617C118.653 31.8472 118.459 31.9643 118.297 32.1097L117.833 31.0718C118.075 30.8738 118.368 30.723 118.709 30.6143C119.048 30.5055 119.4 30.453 119.759 30.453ZM109.159 30.4523C109.63 30.4523 110.05 30.5648 110.423 30.7913C110.793 31.0163 111.084 31.329 111.293 31.7288C111.504 32.1285 111.61 32.583 111.61 33.0907C111.61 33.5977 111.504 34.0538 111.293 34.4528C111.094 34.8404 110.793 35.1651 110.423 35.391C110.051 35.616 109.63 35.7285 109.159 35.7285C108.689 35.7285 108.266 35.616 107.893 35.391C107.52 35.1662 107.217 34.8417 107.016 34.4535C106.806 34.0537 106.701 33.5985 106.701 33.0907C106.701 32.583 106.806 32.1285 107.016 31.728C107.227 31.329 107.52 31.0155 107.893 30.7905C108.276 30.5622 108.714 30.4451 109.159 30.4523ZM66.6349 30.4523C67.0714 30.4523 67.4677 30.5602 67.8224 30.7762C68.1764 30.9923 68.4545 31.3012 68.6567 31.7048C68.859 32.1082 68.9594 32.5763 68.9594 33.1102C68.9594 33.129 68.9519 33.2618 68.9348 33.51H65.5545C65.6154 33.828 65.7597 34.0792 65.9865 34.2622C66.2133 34.446 66.4959 34.5375 66.8342 34.5375C67.0662 34.5375 67.2729 34.4985 67.4521 34.419C67.6321 34.3402 67.8001 34.215 67.9548 34.0432L68.6448 34.9012C68.2232 35.4517 67.6083 35.7285 66.8007 35.7285C66.2973 35.7285 65.8512 35.616 65.4638 35.391C65.0815 35.1712 64.77 34.8453 64.5662 34.452C64.3558 34.053 64.251 33.5985 64.251 33.0907C64.251 32.589 64.3551 32.1368 64.5618 31.7332C64.77 31.3305 65.0548 31.0155 65.4177 30.7905C65.7835 30.564 66.2057 30.447 66.6349 30.453V30.4523ZM83.9115 30.4523C84.348 30.4523 84.7443 30.5602 85.099 30.7762C85.4529 30.9923 85.731 31.3012 85.9333 31.7048C86.1355 32.1082 86.2359 32.5763 86.2359 33.1102C86.2359 33.129 86.2285 33.2618 86.2114 33.51H82.831C82.892 33.828 83.0363 34.0792 83.2631 34.2622C83.4899 34.446 83.7724 34.5375 84.1108 34.5375C84.3428 34.5375 84.5495 34.4985 84.7287 34.419C84.9086 34.3402 85.0767 34.215 85.2313 34.0432L85.9214 34.9012C85.4998 35.4517 84.8848 35.7285 84.0773 35.7285C83.5731 35.7285 83.1277 35.616 82.7403 35.391C82.3581 35.1712 82.0466 34.8453 81.8428 34.452C81.6316 34.053 81.5275 33.5985 81.5275 33.0907C81.5275 32.589 81.6309 32.1368 81.8383 31.7332C82.0466 31.3305 82.3313 31.0155 82.6942 30.7905C83.0601 30.564 83.4822 30.447 83.9115 30.453V30.4523ZM137.225 30.4523C137.661 30.4523 138.057 30.5602 138.412 30.7762C138.766 30.9923 139.044 31.3012 139.246 31.7048C139.449 32.1082 139.549 32.5763 139.549 33.1102C139.549 33.129 139.542 33.2618 139.525 33.51H136.144C136.205 33.828 136.35 34.0792 136.577 34.2622C136.804 34.446 137.086 34.5375 137.424 34.5375C137.656 34.5375 137.863 34.4985 138.042 34.419C138.222 34.3402 138.39 34.215 138.545 34.0432L139.235 34.9012C138.814 35.4517 138.198 35.7285 137.39 35.7285C136.887 35.7285 136.441 35.616 136.053 35.391C135.671 35.1712 135.36 34.8453 135.156 34.452C134.946 34.053 134.841 33.5985 134.841 33.0907C134.841 32.589 134.945 32.1368 135.151 31.7332C135.36 31.3305 135.645 31.0155 136.007 30.7905C136.373 30.564 136.795 30.447 137.225 30.453V30.4523ZM114.937 30.5288C115.496 30.5288 115.933 30.6442 116.249 30.8767C116.565 31.1085 116.722 31.4333 116.722 31.8533C116.722 32.1068 116.667 32.3303 116.552 32.5238C116.439 32.718 116.277 32.8687 116.067 32.976C116.593 33.18 116.856 33.5857 116.856 34.1947C116.856 34.659 116.703 35.0175 116.4 35.271C116.095 35.526 115.641 35.6535 115.037 35.6535H112.653V30.5288H114.937ZM77.2593 30.5288V32.529H79.2023V30.5288H80.4977V35.6527H79.2023V33.738H77.2586V35.6527H75.9722V30.5288H77.2586H77.2593ZM99.7462 30.5288V35.6527H98.4509V31.7475H96.5897V35.6527H95.3033V30.5288H99.7462ZM55.3874 30.5288V32.529H57.3311V30.5288H58.6264V35.6527H57.3311V33.738H55.3874V35.6527H54.101V30.5288H55.3874ZM63.749 30.5288V31.7483H62.2381V35.6535H60.9502V31.7475H59.4384V30.528H63.749V30.5288ZM124.475 30.5288V33.576L126.652 30.5288H127.84V35.6535H126.553V32.6047L124.384 35.6535H123.189V30.5288H124.475ZM49.3769 30.5288V33.576L51.5534 30.5288H52.7409V35.6527H51.4545V32.6055L49.2855 35.6527H48.0898V30.5288H49.3762H49.3769ZM91.1213 30.5288V31.7483H89.6096V35.6535H88.3217V31.7475H86.81V30.528H91.1213V30.5288ZM120.614 33.51H119.726C119.194 33.51 118.929 33.7095 118.929 34.11C118.929 34.3013 118.993 34.4513 119.123 34.5623C119.254 34.6733 119.431 34.7288 119.659 34.7288C119.881 34.7288 120.077 34.6695 120.248 34.5525C120.421 34.4363 120.542 34.2615 120.614 34.0335V33.51ZM114.953 33.5093H113.841V34.644H114.93C115.405 34.644 115.643 34.4565 115.643 34.0808C115.643 33.8843 115.588 33.7395 115.478 33.6472C115.366 33.555 115.191 33.5093 114.953 33.5093ZM72.4594 31.6717C72.303 31.6684 72.1479 31.7014 72.0062 31.7683C71.8645 31.8351 71.74 31.934 71.6422 32.0573C71.4281 32.3153 71.3225 32.6587 71.3225 33.0907C71.3225 33.522 71.4281 33.867 71.6422 34.1235C71.7399 34.2469 71.8644 34.3459 72.0061 34.4129C72.1479 34.4799 72.303 34.513 72.4594 34.5098C72.7918 34.5098 73.0647 34.3808 73.2774 34.1235C73.4908 33.867 73.5971 33.522 73.5971 33.0907C73.5971 32.6587 73.4908 32.3153 73.2774 32.0573C73.1795 31.934 73.0548 31.8353 72.913 31.7685C72.7711 31.7018 72.6159 31.6689 72.4594 31.6725V31.6717ZM109.159 31.6717C108.828 31.6717 108.553 31.8008 108.338 32.0573C108.122 32.3153 108.013 32.6587 108.013 33.0907C108.013 33.522 108.121 33.867 108.338 34.1235C108.553 34.3808 108.828 34.5098 109.159 34.5098C109.492 34.5098 109.765 34.3808 109.977 34.1235C110.191 33.867 110.297 33.522 110.297 33.0907C110.297 32.6587 110.191 32.3153 109.977 32.0573C109.879 31.934 109.755 31.8353 109.613 31.7685C109.471 31.7018 109.316 31.6689 109.159 31.6725V31.6717ZM103.514 31.6717C103.358 31.6684 103.202 31.7014 103.061 31.7683C102.919 31.8351 102.794 31.934 102.697 32.0573C102.483 32.3153 102.377 32.6587 102.377 33.0907C102.377 33.522 102.483 33.867 102.697 34.1235C102.795 34.247 102.919 34.3461 103.061 34.413C103.203 34.48 103.358 34.5131 103.515 34.5098C103.847 34.5098 104.119 34.3808 104.333 34.1235C104.545 33.867 104.652 33.522 104.652 33.0907C104.652 32.6587 104.545 32.3153 104.333 32.0573C104.235 31.934 104.11 31.8353 103.968 31.7685C103.826 31.7018 103.671 31.6689 103.515 31.6725L103.514 31.6717ZM143.049 31.6717C142.893 31.6684 142.738 31.7014 142.596 31.7683C142.454 31.8351 142.33 31.934 142.232 32.0573C142.019 32.3153 141.912 32.6587 141.912 33.0907C141.912 33.522 142.019 33.867 142.232 34.1235C142.33 34.247 142.454 34.3461 142.596 34.413C142.738 34.48 142.893 34.5131 143.05 34.5098C143.382 34.5098 143.654 34.3808 143.868 34.1235C144.081 33.867 144.188 33.522 144.188 33.0907C144.188 32.6587 144.081 32.3153 143.868 32.0573C143.77 31.934 143.645 31.8353 143.503 31.7685C143.362 31.7018 143.206 31.6689 143.05 31.6725L143.049 31.6717ZM132.319 31.7475H130.858L130.833 32.4053C130.816 32.9265 130.781 33.3503 130.729 33.681C130.677 34.011 130.578 34.2615 130.435 34.434H132.32V31.7475H132.319ZM94.0585 32.3752V33.5662H91.7088V32.3752H94.0585ZM137.232 31.5765C136.939 31.5765 136.693 31.6717 136.493 31.8615C136.294 32.0527 136.172 32.3122 136.129 32.643H138.329C138.284 32.319 138.163 32.061 137.965 31.8667C137.868 31.7716 137.753 31.697 137.627 31.6471C137.502 31.5973 137.367 31.5733 137.232 31.5765ZM83.9189 31.5765C83.6259 31.5765 83.3798 31.6717 83.1798 31.8615C82.9812 32.0527 82.8593 32.3122 82.8154 32.643H85.0157C84.9711 32.319 84.8499 32.061 84.6513 31.8667C84.5546 31.7716 84.4399 31.697 84.3142 31.6471C84.1884 31.5973 84.054 31.5733 83.9189 31.5765ZM66.6423 31.5765C66.3494 31.5765 66.1032 31.6717 65.9032 31.8615C65.7047 32.0527 65.5827 32.3122 65.5389 32.643H67.7391C67.6945 32.319 67.5733 32.061 67.3748 31.8667C67.278 31.7716 67.1634 31.697 67.0376 31.6471C66.9118 31.5973 66.7774 31.5733 66.6423 31.5765ZM114.82 31.539H113.841V32.634H114.82C115.275 32.634 115.502 32.4503 115.502 32.0813C115.502 31.719 115.275 31.5382 114.82 31.5382V31.539ZM124.808 28.5C124.813 28.722 124.868 28.8953 124.97 29.019C125.074 29.1428 125.223 29.2058 125.423 29.2058C125.622 29.2058 125.776 29.1428 125.884 29.019C125.991 28.8953 126.046 28.722 126.046 28.5H126.909C126.904 29.4825 126.411 29.9775 125.432 29.9775C124.456 29.9775 123.966 29.4825 123.961 28.5H124.808Z" fill="#1F1F1F"/>
</g>
<defs>
<radialGradient id="paint0_radial_1848_10643" cx="0" cy="0" r="1" gradientUnits="userSpaceOnUse" gradientTransform="translate(19.8333 19.5004) scale(19.3167 19.4832)">
<stop stop-color="#9EBF3B"/>
<stop offset="1" stop-color="#92B656"/>
</radialGradient>
<clipPath id="clip0_1848_10643">
<rect width="145" height="39" fill="white" transform="translate(0.5)"/>
</clipPath>
</defs>
</svg>
