<svg width="25" height="25" viewBox="0 0 25 25" fill="none" xmlns="http://www.w3.org/2000/svg">
<path d="M21.5 11.5005C21.2348 11.5005 20.9804 11.6058 20.7929 11.7934C20.6054 11.9809 20.5 12.2353 20.5 12.5005C20.5119 14.3735 19.8703 16.1921 18.6857 17.6429C17.501 19.0938 15.8475 20.0862 14.01 20.4491C12.1724 20.812 10.2658 20.5228 8.61851 19.6313C6.97123 18.7397 5.68641 17.3017 4.98533 15.5647C4.28425 13.8278 4.21079 11.9008 4.77762 10.1156C5.34445 8.33032 6.51607 6.79862 8.0907 5.78427C9.66533 4.76991 11.5444 4.3364 13.4043 4.5584C15.2641 4.7804 16.9884 5.64401 18.28 7.00049H15.88C15.6148 7.00049 15.3604 7.10584 15.1729 7.29338C14.9854 7.48092 14.88 7.73527 14.88 8.00049C14.88 8.2657 14.9854 8.52006 15.1729 8.70759C15.3604 8.89513 15.6148 9.00049 15.88 9.00049H20.41C20.6752 9.00049 20.9296 8.89513 21.1171 8.70759C21.3046 8.52006 21.41 8.2657 21.41 8.00049V3.50049C21.41 3.23527 21.3046 2.98092 21.1171 2.79338C20.9296 2.60584 20.6752 2.50049 20.41 2.50049C20.1448 2.50049 19.8904 2.60584 19.7029 2.79338C19.5154 2.98092 19.41 3.23527 19.41 3.50049V5.27049C17.7447 3.67855 15.5808 2.71044 13.284 2.52982C10.9873 2.34919 8.69863 2.96713 6.80492 4.27918C4.91121 5.59122 3.52861 7.51689 2.89083 9.73068C2.25305 11.9445 2.39921 14.3106 3.30461 16.429C4.21001 18.5475 5.81911 20.2883 7.8599 21.3573C9.90069 22.4263 12.248 22.7579 14.505 22.296C16.7621 21.834 18.7904 20.607 20.2471 18.8222C21.7039 17.0374 22.4997 14.8043 22.5 12.5005C22.5 12.2353 22.3946 11.9809 22.2071 11.7934C22.0196 11.6058 21.7652 11.5005 21.5 11.5005Z" fill="#9EBF3B"/>
</svg>
