<svg width="21" height="21" viewBox="0 0 21 21" fill="none" xmlns="http://www.w3.org/2000/svg">
<path d="M19.5 9.50049C19.2348 9.50049 18.9804 9.60585 18.7929 9.79338C18.6054 9.98092 18.5 10.2353 18.5 10.5005C18.5119 12.3735 17.8703 14.1921 16.6857 15.6429C15.501 17.0938 13.8475 18.0862 12.01 18.4491C10.1724 18.812 8.26578 18.5228 6.61851 17.6313C4.97123 16.7397 3.68641 15.3017 2.98533 13.5647C2.28425 11.8278 2.21079 9.9008 2.77762 8.11556C3.34445 6.33032 4.51607 4.79862 6.0907 3.78427C7.66533 2.76991 9.5444 2.3364 11.4043 2.5584C13.2641 2.7804 14.9884 3.64401 16.28 5.00049H13.88C13.6148 5.00049 13.3604 5.10584 13.1729 5.29338C12.9854 5.48092 12.88 5.73527 12.88 6.00049C12.88 6.2657 12.9854 6.52006 13.1729 6.70759C13.3604 6.89513 13.6148 7.00049 13.88 7.00049H18.41C18.6752 7.00049 18.9296 6.89513 19.1171 6.70759C19.3046 6.52006 19.41 6.2657 19.41 6.00049V1.50049C19.41 1.23527 19.3046 0.980918 19.1171 0.793381C18.9296 0.605845 18.6752 0.500488 18.41 0.500488C18.1448 0.500488 17.8904 0.605845 17.7029 0.793381C17.5154 0.980918 17.41 1.23527 17.41 1.50049V3.27049C15.7447 1.67855 13.5808 0.71044 11.284 0.529817C8.98729 0.349194 6.69863 0.967133 4.80492 2.27918C2.91121 3.59122 1.52861 5.51689 0.890831 7.73068C0.253051 9.94446 0.399213 12.3106 1.30461 14.429C2.21001 16.5475 3.81911 18.2883 5.8599 19.3573C7.90069 20.4263 10.248 20.7579 12.505 20.296C14.7621 19.834 16.7904 18.607 18.2471 16.8222C19.7039 15.0374 20.4997 12.8043 20.5 10.5005C20.5 10.2353 20.3946 9.98092 20.2071 9.79338C20.0196 9.60585 19.7652 9.50049 19.5 9.50049Z" fill="#9EBF3B"/>
</svg>
