<svg width="21" height="20" viewBox="0 0 21 20" fill="none" xmlns="http://www.w3.org/2000/svg">
<path d="M10.5 5C10.2348 5 9.98043 5.10536 9.7929 5.29289C9.60536 5.48043 9.5 5.73478 9.5 6V10C9.5 10.2652 9.60536 10.5196 9.7929 10.7071C9.98043 10.8946 10.2348 11 10.5 11C10.7652 11 11.0196 10.8946 11.2071 10.7071C11.3946 10.5196 11.5 10.2652 11.5 10V6C11.5 5.73478 11.3946 5.48043 11.2071 5.29289C11.0196 5.10536 10.7652 5 10.5 5ZM11.42 13.62C11.3981 13.5563 11.3679 13.4957 11.33 13.44L11.21 13.29C11.0694 13.1512 10.8908 13.0572 10.6968 13.0199C10.5028 12.9825 10.3021 13.0034 10.12 13.08C9.99882 13.1306 9.88721 13.2017 9.79 13.29C9.69732 13.3834 9.624 13.4943 9.57423 13.6161C9.52447 13.7379 9.49924 13.8684 9.5 14C9.50159 14.1307 9.52876 14.2598 9.58 14.38C9.62492 14.5041 9.69657 14.6168 9.78989 14.7101C9.88321 14.8034 9.99591 14.8751 10.12 14.92C10.2397 14.9729 10.3691 15.0002 10.5 15.0002C10.6309 15.0002 10.7603 14.9729 10.88 14.92C11.0041 14.8751 11.1168 14.8034 11.2101 14.7101C11.3034 14.6168 11.3751 14.5041 11.42 14.38C11.4712 14.2598 11.4984 14.1307 11.5 14C11.5049 13.9334 11.5049 13.8666 11.5 13.8C11.4828 13.7362 11.4558 13.6755 11.42 13.62ZM10.5 0C8.52219 0 6.58879 0.58649 4.9443 1.6853C3.29981 2.78412 2.01809 4.3459 1.26121 6.17317C0.504333 8.00043 0.306299 10.0111 0.692152 11.9509C1.078 13.8907 2.03041 15.6725 3.42894 17.0711C4.82746 18.4696 6.60929 19.422 8.5491 19.8079C10.4889 20.1937 12.4996 19.9957 14.3268 19.2388C16.1541 18.4819 17.7159 17.2002 18.8147 15.5557C19.9135 13.9112 20.5 11.9778 20.5 10C20.5 8.68678 20.2413 7.38642 19.7388 6.17317C19.2363 4.95991 18.4997 3.85752 17.5711 2.92893C16.6425 2.00035 15.5401 1.26375 14.3268 0.761205C13.1136 0.258658 11.8132 0 10.5 0ZM10.5 18C8.91775 18 7.37104 17.5308 6.05544 16.6518C4.73985 15.7727 3.71447 14.5233 3.10897 13.0615C2.50347 11.5997 2.34504 9.99113 2.65372 8.43928C2.9624 6.88743 3.72433 5.46197 4.84315 4.34315C5.96197 3.22433 7.38743 2.4624 8.93928 2.15372C10.4911 1.84504 12.0997 2.00346 13.5615 2.60896C15.0233 3.21447 16.2727 4.23984 17.1518 5.55544C18.0308 6.87103 18.5 8.41775 18.5 10C18.5 12.1217 17.6572 14.1566 16.1569 15.6569C14.6566 17.1571 12.6217 18 10.5 18Z" fill="#CEBC08"/>
</svg>
