<svg width="25" height="24" viewBox="0 0 25 24" fill="none" xmlns="http://www.w3.org/2000/svg">
<path d="M12.5 7C12.2348 7 11.9804 7.10536 11.7929 7.29289C11.6054 7.48043 11.5 7.73478 11.5 8V12C11.5 12.2652 11.6054 12.5196 11.7929 12.7071C11.9804 12.8946 12.2348 13 12.5 13C12.7652 13 13.0196 12.8946 13.2071 12.7071C13.3946 12.5196 13.5 12.2652 13.5 12V8C13.5 7.73478 13.3946 7.48043 13.2071 7.29289C13.0196 7.10536 12.7652 7 12.5 7ZM13.42 15.62C13.3981 15.5563 13.3679 15.4957 13.33 15.44L13.21 15.29C13.0694 15.1512 12.8908 15.0572 12.6968 15.0199C12.5028 14.9825 12.3021 15.0034 12.12 15.08C11.9988 15.1306 11.8872 15.2017 11.79 15.29C11.6973 15.3834 11.624 15.4943 11.5742 15.6161C11.5245 15.7379 11.4992 15.8684 11.5 16C11.5016 16.1307 11.5288 16.2598 11.58 16.38C11.6249 16.5041 11.6966 16.6168 11.7899 16.7101C11.8832 16.8034 11.9959 16.8751 12.12 16.92C12.2397 16.9729 12.3691 17.0002 12.5 17.0002C12.6309 17.0002 12.7603 16.9729 12.88 16.92C13.0041 16.8751 13.1168 16.8034 13.2101 16.7101C13.3034 16.6168 13.3751 16.5041 13.42 16.38C13.4712 16.2598 13.4984 16.1307 13.5 16C13.5049 15.9334 13.5049 15.8666 13.5 15.8C13.4828 15.7362 13.4558 15.6755 13.42 15.62ZM12.5 2C10.5222 2 8.58879 2.58649 6.9443 3.6853C5.29981 4.78412 4.01809 6.3459 3.26121 8.17317C2.50433 10.0004 2.3063 12.0111 2.69215 13.9509C3.078 15.8907 4.03041 17.6725 5.42894 19.0711C6.82746 20.4696 8.60929 21.422 10.5491 21.8079C12.4889 22.1937 14.4996 21.9957 16.3268 21.2388C18.1541 20.4819 19.7159 19.2002 20.8147 17.5557C21.9135 15.9112 22.5 13.9778 22.5 12C22.5 10.6868 22.2413 9.38642 21.7388 8.17317C21.2363 6.95991 20.4997 5.85752 19.5711 4.92893C18.6425 4.00035 17.5401 3.26375 16.3268 2.7612C15.1136 2.25866 13.8132 2 12.5 2ZM12.5 20C10.9178 20 9.37104 19.5308 8.05544 18.6518C6.73985 17.7727 5.71447 16.5233 5.10897 15.0615C4.50347 13.5997 4.34504 11.9911 4.65372 10.4393C4.9624 8.88743 5.72433 7.46197 6.84315 6.34315C7.96197 5.22433 9.38743 4.4624 10.9393 4.15372C12.4911 3.84504 14.0997 4.00346 15.5615 4.60896C17.0233 5.21447 18.2727 6.23984 19.1518 7.55544C20.0308 8.87103 20.5 10.4177 20.5 12C20.5 14.1217 19.6572 16.1566 18.1569 17.6569C16.6566 19.1571 14.6217 20 12.5 20Z" fill="#CEBC08"/>
</svg>
