<svg width="26" height="27" viewBox="0 0 26 27" fill="none" xmlns="http://www.w3.org/2000/svg">
<path d="M13 26.5C20.1797 26.5 26 20.6797 26 13.5C26 6.3203 20.1797 0.5 13 0.5C5.8203 0.5 0 6.3203 0 13.5C0 20.6797 5.8203 26.5 13 26.5Z" fill="#25D366"/>
<path fill-rule="evenodd" clip-rule="evenodd" d="M13.4285 20.7326H13.4253C12.1315 20.7322 10.8603 20.4076 9.7312 19.7917L5.6333 20.8667L6.72997 16.861C6.05349 15.6886 5.69753 14.3588 5.69811 12.9964C5.69981 8.73425 9.16758 5.26666 13.4284 5.26666C15.4963 5.26756 17.4372 6.07259 18.8967 7.53376C20.3561 8.99486 21.1594 10.937 21.1586 13.0025C21.1569 17.2636 17.6905 20.7309 13.4285 20.7326ZM9.92106 18.3923L10.1557 18.5315C11.1422 19.1169 12.2729 19.4267 13.4259 19.4271H13.4285C16.9698 19.4271 19.852 16.5448 19.8534 13.002C19.8541 11.2852 19.1864 9.671 17.9734 8.45653C16.7603 7.24206 15.1471 6.57291 13.431 6.57232C9.88697 6.57232 7.00468 9.45434 7.00327 12.9968C7.00277 14.2109 7.34246 15.3932 7.98562 16.4161L8.13838 16.6592L7.48931 19.0302L9.92106 18.3923ZM17.0584 14.6668C17.1931 14.7319 17.284 14.7758 17.3229 14.8407C17.3712 14.9212 17.3712 15.308 17.2103 15.7592C17.0493 16.2104 16.2776 16.6222 15.9065 16.6776C15.5737 16.7273 15.1526 16.7481 14.6899 16.601C14.4094 16.512 14.0496 16.3932 13.5888 16.1942C11.7781 15.4123 10.5544 13.6573 10.3231 13.3256C10.3069 13.3024 10.2955 13.2861 10.2892 13.2777L10.2877 13.2756C10.1855 13.1392 9.50054 12.2254 9.50054 11.2796C9.50054 10.3899 9.93757 9.92354 10.1387 9.70888C10.1525 9.69417 10.1652 9.68065 10.1766 9.66825C10.3536 9.47487 10.5629 9.42653 10.6916 9.42653C10.8204 9.42653 10.9493 9.42772 11.0618 9.43337C11.0757 9.43407 11.0901 9.43399 11.1051 9.4339C11.2176 9.43324 11.358 9.43242 11.4964 9.76494C11.5497 9.89291 11.6276 10.0826 11.7098 10.2827C11.876 10.6873 12.0596 11.1344 12.0919 11.1991C12.1402 11.2958 12.1724 11.4085 12.108 11.5375C12.0984 11.5568 12.0894 11.5751 12.0809 11.5925C12.0325 11.6913 11.9969 11.7639 11.9149 11.8597C11.8826 11.8974 11.8492 11.938 11.8159 11.9786C11.7494 12.0596 11.683 12.1405 11.6251 12.1981C11.5284 12.2944 11.4278 12.3989 11.5405 12.5923C11.6531 12.7857 12.0408 13.4182 12.615 13.9303C13.2322 14.4809 13.7687 14.7136 14.0406 14.8315C14.0937 14.8546 14.1367 14.8732 14.1683 14.889C14.3614 14.9857 14.474 14.9696 14.5867 14.8407C14.6994 14.7118 15.0695 14.2767 15.1983 14.0833C15.327 13.89 15.4559 13.9222 15.6329 13.9867C15.81 14.0512 16.7596 14.5184 16.9527 14.6151C16.9904 14.6339 17.0257 14.651 17.0584 14.6668Z" fill="#FDFDFD"/>
</svg>
